<svg width="16" height="16" viewBox="0 0 16 16" fill="none" xmlns="http://www.w3.org/2000/svg">
<path d="M14.875 11.3813L12.375 9.92504C12.1074 9.76557 11.7898 9.71178 11.4846 9.77421C11.1794 9.83664 10.9085 10.0108 10.725 10.2625L9.36249 12.075C8.11173 11.6292 6.96229 10.9387 5.98124 10.0438C5.08567 9.06091 4.39512 7.90929 3.94999 6.65631L5.76249 5.30005C6.01425 5.11654 6.1884 4.84564 6.25083 4.54043C6.31326 4.23521 6.25947 3.91768 6.09999 3.65006L4.61874 1.12505C4.5337 0.968233 4.41607 0.83143 4.27377 0.723843C4.13147 0.616255 3.96778 0.540369 3.79372 0.501293C3.61965 0.462218 3.43924 0.460869 3.26461 0.497307C3.08997 0.533744 2.92516 0.607129 2.78125 0.712551L1.92499 1.33755C1.49707 1.63701 1.14795 2.03558 0.907428 2.4992C0.666908 2.96283 0.542132 3.47776 0.543744 4.00006C0.482117 5.51883 0.752757 7.03274 1.33677 8.43609C1.92078 9.83944 2.80408 11.0984 3.925 12.1251C4.95165 13.246 6.2106 14.1293 7.61395 14.7133C9.0173 15.2973 10.5312 15.5679 12.05 15.5063C12.5723 15.5079 13.0872 15.3831 13.5509 15.1426C14.0145 14.9021 14.413 14.553 14.7125 14.125L15.3375 13.2688C15.4502 13.1205 15.5284 12.9489 15.5663 12.7666C15.6042 12.5842 15.6009 12.3956 15.5566 12.2147C15.5122 12.0338 15.428 11.8651 15.3101 11.7209C15.1922 11.5767 15.0435 11.4607 14.875 11.3813Z" fill="#03050F"/>
</svg>
